<?xml version="1.0" encoding="UTF-8"?><svg xmlns="http://www.w3.org/2000/svg" width="1607" height="1340.59" viewBox="0 0 1607 1340.59"><g id="TV"><polyline points="1362.35 3.67 791.97 409.09 1241.5 227.09" fill="none" stroke="#000" stroke-miterlimit="10" stroke-width="9"/><rect x="2.5" y="402.09" width="1602" height="936" rx="63.57" ry="63.57" fill="#a67c52" stroke="#000" stroke-miterlimit="10" stroke-width="5"/><rect x="69.92" y="448.57" width="1303.08" height="856.84" rx="33.34" ry="33.34" fill="gray" stroke="#000" stroke-miterlimit="10" stroke-width="5"/><rect x="126.04" y="486.65" width="1191.17" height="783.26" rx="10.81" ry="10.81" fill="none" stroke="#000" stroke-miterlimit="10" stroke-width="5"/><line x1="81.36" y1="456.79" x2="129" y2="490.59" fill="gray" stroke="#000" stroke-miterlimit="10" stroke-width="5"/><line x1="129" y1="1266.59" x2="81.36" y2="1297.19" fill="gray" stroke="#000" stroke-miterlimit="10" stroke-width="5"/><line x1="1313.98" y1="1266.8" x2="1361.93" y2="1296.87" fill="gray" stroke="#000" stroke-miterlimit="10" stroke-width="5"/><line x1="1315.3" y1="491.32" x2="1364.65" y2="459.86" fill="gray" stroke="#000" stroke-miterlimit="10" stroke-width="5"/></g><g id="ColorBars"><path d="M122.79,484.11H1327.5v790.98H122.79V484.11Z" fill="#131313"/><path d="M122.79,484.11h172.1V1011.43H122.79V484.11Z" fill="silver"/><path d="M294.89,484.11h172.1V1011.43h-172.1V484.11Z" fill="#c0c000"/><path d="M466.99,484.11h172.1V1011.43h-172.1V484.11Z" fill="#00c0c0"/><path d="M639.09,484.11h172.1V1011.43h-172.1V484.11Z" fill="#00c000"/><path d="M811.2,484.11h172.1V1011.43h-172.1V484.11Z" fill="#c000c0"/><path d="M983.3,484.11h172.1V1011.43h-172.1V484.11Z" fill="#c00000"/><path d="M1155.4,484.11h172.1V1011.43h-172.1V484.11ZM122.79,1011.43h172.1v65.92H122.79v-65.92Z" fill="#0000c0"/><path d="M466.99,1011.43h172.1v65.92h-172.1v-65.92Z" fill="#c000c0"/><path d="M811.2,1011.43h172.1v65.92h-172.1v-65.92Z" fill="#00c0c0"/><path d="M1155.4,1011.43h172.1v65.92h-172.1v-65.92Z" fill="silver"/><path d="M122.79,1077.35h215.13v197.75H122.79v-197.75Z" fill="#00214c"/><path d="M337.92,1077.35h215.13v197.75h-215.13v-197.75Z" fill="#fff"/><path d="M553.04,1077.35h215.13v197.75h-215.13v-197.75Z" fill="#32006a"/><path d="M983.3,1077.35h57.37v197.75h-57.37v-197.75Z" fill="#090909"/><path d="M1098.03,1077.35h57.37v197.75h-57.37v-197.75Z" fill="#1d1d1d"/><rect x="122.79" y="484.11" width="1204.71" height="790.98" fill="none" stroke="#000" stroke-miterlimit="10" stroke-width="4"/></g><g id="Buttons"><rect x="1395.5" y="487.09" width="189" height="383" fill="#999" stroke="#000" stroke-miterlimit="10" stroke-width="4"/><g><circle cx="1490" cy="597.59" r="75.5" fill="#4d4d4d" stroke="#000" stroke-miterlimit="10" stroke-width="4"/><line x1="1527.15" y1="549.25" x2="1452.85" y2="637.74" fill="none" stroke="#000" stroke-miterlimit="10" stroke-width="6"/></g><g><circle cx="1490" cy="767.59" r="53.5" fill="#4d4d4d" stroke="#000" stroke-miterlimit="10" stroke-width="4"/><line x1="1519.76" y1="792.3" x2="1463.5" y2="743.26" fill="none" stroke="#000" stroke-miterlimit="10" stroke-width="6"/></g></g><g id="Text"><g><path d="M333.35,810.73c-.79,12.09-6.84,18.14-18.14,18.14h-18.22c-4.97,0-9.23-1.78-12.79-5.34-3.56-3.56-5.34-7.83-5.34-12.79v-45.47c0-4.88,1.75-9.13,5.26-12.73,3.51-3.6,7.8-5.41,12.88-5.41h18.22c11.41,0,17.46,6.05,18.14,18.14h-9.11c-.71-6.02-3.72-9.03-9.03-9.03h-9.11c-2.5,0-4.64,.89-6.43,2.66-1.79,1.77-2.68,3.9-2.68,6.37v45.47c0,2.44,.89,4.56,2.66,6.34,1.77,1.79,3.92,2.68,6.45,2.68h9.11c5.34,0,8.35-3.01,9.03-9.03h9.11Z"/><path d="M351.49,828.86v-81.75h18.14v81.75h-18.14Z"/><path d="M387.85,756.23v-9.11h18.14v9.11h-18.14Zm0,72.64v-63.61h18.14v63.61h-18.14Z"/><path d="M469.6,783.48h-9.03c-.71-6.07-3.75-9.11-9.11-9.11-2.5,0-4.64,.89-6.43,2.68-1.79,1.79-2.68,3.93-2.68,6.43v27.25c0,2.44,.89,4.56,2.66,6.34,1.77,1.79,3.92,2.68,6.45,2.68,5.36,0,8.4-3.01,9.11-9.03h9.03c-.74,12.09-6.78,18.14-18.14,18.14h-9.11c-4.97,0-9.23-1.78-12.79-5.34-3.56-3.56-5.34-7.83-5.34-12.79v-27.25c0-5.02,1.79-9.32,5.36-12.88,3.58-3.56,7.83-5.34,12.77-5.34h9.11c11.41,0,17.46,6.07,18.14,18.22Z"/><path d="M487.82,828.86v-81.75h18.14v40.88l27.25-22.74h18.22l-38.06,31.85,38.06,31.76h-18.22l-27.25-22.74v22.74h-18.14Z"/><path d="M623.43,792.5v-9.03c0-2.5-.9-4.64-2.7-6.43-1.8-1.79-3.94-2.68-6.41-2.68h-9.11c-5.36,0-8.37,3.04-9.03,9.11h-9.11c1.39-12.15,7.44-18.22,18.14-18.22h18.22c4.97,0,9.23,1.8,12.79,5.39,3.56,3.59,5.34,7.87,5.34,12.84v45.39h-18.14v-9.11c-.71,6.07-3.75,9.11-9.11,9.11h-9.11c-4.97,0-9.23-1.78-12.79-5.34-3.56-3.56-5.34-7.83-5.34-12.79v-.09c0-4.97,1.79-9.23,5.36-12.79,3.58-3.56,7.83-5.34,12.77-5.34h18.22Zm0,9.11h-9.11c-2.5,0-4.64,.89-6.43,2.66-1.79,1.77-2.68,3.9-2.68,6.37v.09c0,2.44,.89,4.56,2.66,6.34,1.77,1.79,3.92,2.68,6.45,2.68s4.68-.89,6.45-2.68c1.77-1.79,2.66-3.9,2.66-6.34v-9.11Z"/><path d="M659.71,828.86v-63.61h18.14v9.11c.37-3.07,1.31-5.35,2.83-6.85,1.52-1.5,3.61-2.26,6.28-2.26h9.11c4.97,0,9.23,1.8,12.79,5.39,3.56,3.59,5.34,7.87,5.34,12.84v45.39h-18.14v-45.39c0-2.5-.9-4.64-2.7-6.43-1.8-1.79-3.94-2.68-6.41-2.68s-4.64,.89-6.43,2.68c-1.79,1.79-2.68,3.93-2.68,6.43v45.39h-18.14Z"/><path d="M741.46,837.98c.43,6.02,3.43,9.03,9.03,9.03h9.11c2.47,0,4.6-.89,6.41-2.66,1.8-1.77,2.7-3.9,2.7-6.37v-18.22c-.71,6.07-3.75,9.11-9.11,9.11h-9.11c-4.97,0-9.23-1.78-12.79-5.34-3.56-3.56-5.34-7.83-5.34-12.79v-45.47h18.14v45.47c0,2.44,.89,4.56,2.66,6.34,1.77,1.79,3.92,2.68,6.45,2.68s4.68-.89,6.45-2.68c1.77-1.79,2.66-3.9,2.66-6.34v-45.47h18.14v72.72c0,4.94-1.8,9.2-5.39,12.77-3.59,3.58-7.84,5.36-12.75,5.36h-18.22c-10.7,0-16.75-6.05-18.14-18.14h9.11Z"/><path d="M804.98,765.25h18.14v54.5h9.11c2.53,0,4.68-.89,6.45-2.68,1.77-1.79,2.66-3.9,2.66-6.34v-45.47h18.14v54.5h9.11c2.47,0,4.59-.89,6.37-2.68,1.77-1.79,2.66-3.9,2.66-6.34v-45.47h18.22v32.57c0,8.46-3.04,15.75-9.13,21.86-6.09,6.12-13.39,9.18-21.91,9.18h-23.46v-2.9c-3.49,1.93-7.79,2.9-12.9,2.9h-23.46v-63.61Z"/><path d="M913.98,828.86v-81.75h18.14v27.25c.37-3.07,1.31-5.35,2.83-6.85,1.52-1.5,3.61-2.26,6.28-2.26h9.11c4.97,0,9.23,1.8,12.79,5.39,3.56,3.59,5.34,7.87,5.34,12.84v45.39h-18.14v-45.39c0-2.5-.9-4.64-2.7-6.43-1.8-1.79-3.94-2.68-6.41-2.68s-4.64,.89-6.43,2.68c-1.79,1.79-2.68,3.93-2.68,6.43v45.39h-18.14Z"/><path d="M1041.12,801.61h-36.36v9.11c0,2.44,.89,4.56,2.66,6.34,1.77,1.79,3.92,2.68,6.45,2.68h9.11c6.02,0,9.03-3.01,9.03-9.03h9.11c-1.42,12.09-7.46,18.14-18.14,18.14h-18.22c-4.97,0-9.23-1.78-12.79-5.34-3.56-3.56-5.34-7.83-5.34-12.79v-27.25c0-5.02,1.79-9.32,5.37-12.88,3.58-3.56,7.83-5.34,12.77-5.34h18.22c4.97,0,9.23,1.8,12.79,5.39,3.56,3.59,5.34,7.87,5.34,12.84v18.14Zm-36.36-9.11h18.22v-9.03c0-2.5-.9-4.64-2.7-6.43-1.8-1.79-3.94-2.68-6.41-2.68s-4.64,.89-6.43,2.68c-1.79,1.79-2.68,3.93-2.68,6.43v9.03Z"/><path d="M1077.39,828.86h-18.14v-63.61h18.14v18.22c.71-6.07,2.58-10.63,5.62-13.67,3.04-3.04,7.24-4.56,12.6-4.56h9.03v18.22h-18.14c-2.5,0-4.64,.89-6.43,2.66-1.79,1.77-2.68,3.9-2.68,6.37v36.36Z"/><path d="M1168.26,801.61h-36.36v9.11c0,2.44,.89,4.56,2.66,6.34,1.77,1.79,3.92,2.68,6.45,2.68h9.11c6.02,0,9.03-3.01,9.03-9.03h9.11c-1.42,12.09-7.46,18.14-18.14,18.14h-18.22c-4.97,0-9.23-1.78-12.79-5.34-3.56-3.56-5.34-7.83-5.34-12.79v-27.25c0-5.02,1.79-9.32,5.36-12.88,3.58-3.56,7.83-5.34,12.77-5.34h18.22c4.97,0,9.23,1.8,12.79,5.39,3.56,3.59,5.34,7.87,5.34,12.84v18.14Zm-36.36-9.11h18.22v-9.03c0-2.5-.9-4.64-2.71-6.43-1.8-1.79-3.94-2.68-6.41-2.68s-4.64,.89-6.43,2.68c-1.79,1.79-2.68,3.93-2.68,6.43v9.03Z"/><path d="M473.75,877.91h18.14v18.14h9.11v9.11h-9.11v36.36c0,2.92,.96,5.16,2.9,6.71,1.93,1.55,3.72,2.32,5.37,2.32h.85v9.11h-9.11c-5,0-9.27-1.78-12.82-5.34-3.55-3.56-5.32-7.83-5.32-12.79v-36.36h-9.11v-9.11h9.11v-18.14Z"/><path d="M537.28,896.05h18.22c4.97,0,9.23,1.79,12.79,5.39,3.56,3.59,5.34,7.87,5.34,12.84v27.25c0,4.91-1.78,9.16-5.34,12.75-3.56,3.59-7.83,5.39-12.79,5.39h-18.22c-4.97,0-9.23-1.78-12.79-5.34-3.56-3.56-5.34-7.83-5.34-12.79v-27.25c0-5.02,1.79-9.32,5.36-12.88s7.83-5.34,12.77-5.34Zm0,18.22v27.25c0,2.44,.89,4.56,2.66,6.34,1.77,1.79,3.92,2.68,6.45,2.68s4.68-.89,6.45-2.68c1.77-1.79,2.66-3.9,2.66-6.34v-27.25c0-2.5-.9-4.64-2.7-6.43-1.8-1.79-3.94-2.68-6.41-2.68s-4.64,.89-6.43,2.68c-1.79,1.79-2.68,3.93-2.68,6.43Z"/><path d="M663.78,914.27h-9.03c-.8-6.07-3.66-9.11-8.6-9.11-3.21,0-5.62,.63-7.24,1.89-1.62,1.26-2.43,3.14-2.43,5.64s4.41,6.27,13.24,10.99c7.18,3.86,11.32,7.06,12.41,9.6,1.09,2.54,1.64,5.24,1.64,8.11,0,5.05-1.78,9.36-5.34,12.92-3.56,3.56-7.83,5.34-12.79,5.34h-9.11c-12.09,0-18.14-6.05-18.14-18.14h9.11c.71,6.05,3.55,9.07,8.52,9.07,3.21,0,5.62-.64,7.24-1.92,1.62-1.28,2.43-3.17,2.43-5.66s-4.4-6.22-13.2-10.98c-7.21-3.83-11.36-7.03-12.45-9.58-1.09-2.55-1.64-5.25-1.64-8.09,0-5.08,1.79-9.4,5.36-12.96s7.83-5.34,12.77-5.34h9.11c11.35,0,17.4,6.07,18.14,18.22Z"/><path d="M691.11,877.91h18.14v18.14h9.11v9.11h-9.11v36.36c0,2.92,.96,5.16,2.9,6.71,1.93,1.55,3.72,2.32,5.37,2.32h.85v9.11h-9.11c-5,0-9.27-1.78-12.82-5.34-3.55-3.56-5.32-7.83-5.32-12.79v-36.36h-9.11v-9.11h9.11v-18.14Z"/><path d="M772.86,923.3v-9.03c0-2.5-.9-4.64-2.7-6.43-1.8-1.79-3.94-2.68-6.41-2.68h-9.11c-5.36,0-8.37,3.04-9.03,9.11h-9.11c1.39-12.15,7.44-18.22,18.14-18.22h18.22c4.97,0,9.23,1.79,12.79,5.39,3.56,3.59,5.34,7.87,5.34,12.84v45.39h-18.14v-9.11c-.71,6.07-3.75,9.11-9.11,9.11h-9.11c-4.97,0-9.23-1.78-12.79-5.34-3.56-3.56-5.34-7.83-5.34-12.79v-.08c0-4.97,1.79-9.23,5.36-12.79s7.83-5.34,12.77-5.34h18.22Zm0,9.11h-9.11c-2.5,0-4.64,.89-6.43,2.66-1.79,1.77-2.68,3.9-2.68,6.37v.08c0,2.44,.89,4.56,2.66,6.34,1.77,1.79,3.92,2.68,6.45,2.68s4.68-.89,6.45-2.68c1.77-1.79,2.66-3.9,2.66-6.34v-9.11Z"/><path d="M827.27,959.66h-18.14v-63.61h18.14v18.22c.71-6.07,2.58-10.63,5.62-13.67s7.24-4.56,12.6-4.56h9.03v18.22h-18.14c-2.5,0-4.64,.89-6.43,2.66-1.79,1.77-2.68,3.9-2.68,6.37v36.36Z"/><path d="M872.75,877.91h18.14v18.14h9.11v9.11h-9.11v36.36c0,2.92,.96,5.16,2.9,6.71,1.93,1.55,3.72,2.32,5.37,2.32h.85v9.11h-9.11c-5,0-9.27-1.78-12.82-5.34-3.55-3.56-5.32-7.83-5.32-12.79v-36.36h-9.11v-9.11h9.11v-18.14Z"/><path d="M918.14,959.66v-18.14h18.14v18.14h-18.14Z"/><path d="M954.5,959.66v-18.14h18.14v18.14h-18.14Z"/><path d="M990.86,959.66v-18.14h18.14v18.14h-18.14Z"/></g></g></svg>