<?xml version="1.0" encoding="UTF-8"?><svg xmlns="http://www.w3.org/2000/svg" width="2464.89" height="1757.94" viewBox="0 0 2464.89 1757.94"><g id="a"><path d="M187.2,444.14H2037.05V1658.7H187.2V444.14Z" fill="#131313"/><polygon points="919.02 112.6 1260.47 361.5 1270.41 346.77 920.52 110.54 919.02 112.6" fill="#999"/><polygon points="1681.95 14.15 1225.07 323.7 1238.95 340.95 1684.49 18.27 1681.95 14.15" fill="#999"/><ellipse cx="919.02" cy="110.54" rx="9.41" ry="9.55" transform="translate(659.12 998.95) rotate(-80.55)" fill="#999"/><ellipse cx="1684.1" cy="13.94" rx="13.44" ry="13.94" fill="#999"/><ellipse cx="1232.84" cy="333.76" rx="108.5" ry="27.74" fill="#999"/><rect x="2.5" y="318.2" width="2459.89" height="1437.24" rx="63.57" ry="63.57" fill="#a67c52" stroke="#000" stroke-miterlimit="10" stroke-width="5"/><rect x="106.03" y="389.57" width="2000.89" height="1315.68" rx="33.34" ry="33.34" fill="#333" stroke="#000" stroke-miterlimit="10" stroke-width="5"/><line x1="119.05" y1="396.13" x2="192.2" y2="448.03" fill="gray" stroke="#000" stroke-miterlimit="10" stroke-width="5"/><line x1="196.74" y1="1650.73" x2="123.59" y2="1697.72" fill="gray" stroke="#000" stroke-miterlimit="10" stroke-width="5"/><line x1="2021.26" y1="1651.14" x2="2094.9" y2="1697.31" fill="gray" stroke="#000" stroke-miterlimit="10" stroke-width="5"/><line x1="2021.26" y1="452.73" x2="2097.05" y2="404.42" fill="gray" stroke="#000" stroke-miterlimit="10" stroke-width="5"/><rect x="187.2" y="444.14" width="1849.85" height="1214.56" fill="none" stroke="#000" stroke-miterlimit="10" stroke-width="4"/><rect x="2181.92" y="794.19" width="218.08" height="441.94" fill="#999" stroke="#000" stroke-miterlimit="10" stroke-width="4"/><g><circle cx="2290.97" cy="921.69" r="87.12" fill="#4d4d4d" stroke="#000" stroke-miterlimit="10" stroke-width="4"/><line x1="2333.83" y1="865.91" x2="2248.1" y2="968.02" fill="none" stroke="#000" stroke-miterlimit="10" stroke-width="6"/></g><g><circle cx="2290.97" cy="1117.85" r="61.73" fill="#4d4d4d" stroke="#000" stroke-miterlimit="10" stroke-width="4"/><line x1="2325.31" y1="1146.36" x2="2260.39" y2="1089.78" fill="none" stroke="#000" stroke-miterlimit="10" stroke-width="6"/></g><ellipse cx="2289.08" cy="1314.09" rx="117.58" ry="8.19"/><ellipse cx="2289.08" cy="1442.24" rx="117.58" ry="8.19"/><ellipse cx="2289.08" cy="1399.52" rx="117.58" ry="8.19"/><ellipse cx="2289.08" cy="1356.81" rx="117.58" ry="8.19"/><ellipse cx="2289.08" cy="1527.66" rx="117.58" ry="8.19"/><ellipse cx="2289.08" cy="1484.95" rx="117.58" ry="8.19"/></g><g id="c"><g id="d"><circle cx="2289.08" cy="594.43" r="103.13" fill="red" stroke="#000" stroke-miterlimit="10" stroke-width="14"/><polygon points="2415.91 452.73 2386.49 452.73 2223.11 448.03 2162.26 452.73 2156.46 438.94 2168.51 422 2158.38 407.46 2172.47 396.02 2162.26 381.7 2238.08 386.33 2331 389.57 2415.91 381.7 2399.7 397.34 2415.91 408.35 2405.86 426.4 2418.19 436.53 2415.91 452.73" fill="silver" stroke="#000" stroke-miterlimit="10" stroke-width="4"/><path d="M2189.35,400.82c1.12,11.31,2.24,22.62,3.36,33.92,.75,7.61,12.76,7.69,12,0-1.12-11.31-2.24-22.62-3.36-33.92-.75-7.61-12.76-7.69-12,0h0Z"/><path d="M2200.05,402.3c.06,1.11-1.17-.2,.08,.38,.64,.3,1.67,.17,2.41,.51,1.28,.59,2.48,1.7,3,3.04,1.27,3.25-1.19,6.04-3.95,7.32-7,3.24-.91,13.59,6.06,10.36,10.49-4.85,13.57-19.25,5.43-27.67-7.24-7.49-25.77-8.04-25.03,6.06,.4,7.68,12.41,7.73,12,0h0Z"/><path d="M2226.56,398.12c-5.76,6.03-9.26,13.93-9.22,22.35,.03,7.61,3.29,17.08,11.9,18.34,8.22,1.2,14.52-6.27,17.04-13.24,2.72-7.53,1.6-16.17-2.83-22.8s-14.67-.39-10.36,6.06c2.06,3.08,3.1,6.42,2.56,10.16-.2,1.37-2.45,8.63-4.69,7.93s-1.67-7.9-1.44-9.46c.63-4.17,2.63-7.83,5.52-10.85,5.34-5.58-3.14-14.08-8.49-8.49h0Z"/><path d="M2247.64,405.56c4.54,10.2,9.08,20.39,13.62,30.59,2.26,5.08,9.5,2.98,10.97-1.43,2.04-6.13,4.09-12.26,6.13-18.39l-10.97,1.43c3.3,5.59,9.51,21.3,18.32,14.14,3.38-2.75,3-7.59,3.15-11.52,.22-5.33,.43-10.67,.65-16,.31-7.72-11.69-7.71-12,0-.14,3.45-.28,6.9-.42,10.35-.06,1.57-.13,3.14-.19,4.71-.07,1.74-1.4,4.57,1.3,3.05l4.62-.6-1.11-.44,3.59,2.76c-2.9-3.83-5.1-8.35-7.55-12.49-2.72-4.61-9.36-3.38-10.97,1.43-2.04,6.13-4.09,12.26-6.13,18.39l10.97-1.43c-4.54-10.2-9.08-20.39-13.62-30.59-3.13-7.04-13.48-.94-10.36,6.06h0Z"/><path d="M2297.93,405.54c3.28,11.43,6.57,22.87,9.85,34.3,.92,3.19,4.19,4.96,7.38,4.19,5.24-1.27,10.47-2.53,15.71-3.8,7.5-1.81,4.33-13.39-3.19-11.57-5.24,1.27-10.47,2.53-15.71,3.8l7.38,4.19c-3.28-11.43-6.57-22.87-9.85-34.3-2.13-7.41-13.71-4.26-11.57,3.19h0Z"/><path d="M2305.88,408.33l12.29-.93c3.23-.24,6-2.58,6-6,0-3.06-2.75-6.25-6-6l-12.29,.93c-3.23,.24-6,2.58-6,6,0,3.06,2.75,6.25,6,6h0Z"/><path d="M2317.18,427.38l3.54-1.73c1.29-.63,2.39-2.24,2.76-3.59,.4-1.44,.22-3.35-.6-4.62s-2.06-2.41-3.59-2.76c-1.64-.37-3.11-.14-4.62,.6l-3.54,1.73c-1.29,.63-2.39,2.24-2.76,3.59-.4,1.44-.22,3.35,.6,4.62s2.06,2.41,3.59,2.76c1.64,.37,3.11,.14,4.62-.6h0Z"/><path d="M2339.69,406.44c2.69,8.2,5.38,16.41,8.07,24.61,2.4,7.31,13.99,4.18,11.57-3.19-2.69-8.2-5.38-16.41-8.07-24.61-2.4-7.31-13.99-4.18-11.57,3.19h0Z"/><path d="M2344.93,398.16l-1.91-.76,1.43,10.97c3.05-1.46,6.62-2.09,9.93-1.19,1.19,.32,3.69,2.49,3.91,2.41-4.93,1.84-6.43,10.48,0,11.57,8.49,1.44,15.14,6.2,19.04,13.89,3.14-2.42,6.28-4.85,9.42-7.27l-.92-1.17c-4.77-6.07-13.21,2.48-8.49,8.49l.92,1.17c4.41,5.6,12.34-1.53,9.42-7.27-5.16-10.17-14.95-17.5-26.21-19.4v11.57c8.73-3.26,11.11-14.07,4.53-20.83-7.2-7.39-19.09-6.42-27.61-2.32-5.17,2.48-2.86,9.26,1.43,10.97l1.91,.76c7.17,2.86,10.29-8.74,3.19-11.57h0Z"/><rect x="2277.68" y="514.73" width="22.8" height="76.07" rx="11.4" ry="11.4" transform="translate(4578.16 1105.52) rotate(-180)" stroke="#000" stroke-miterlimit="10"/><path d="M2315.73,536.12c-1.91,4.33-2.89,8.28-2.76,12.3,.08,2.46,1.39,4.7,3.43,6.08,13.74,9.29,22.5,25.37,21.43,43.44-1.47,24.88-21.92,44.88-46.83,45.83-27.85,1.07-50.76-21.19-50.76-48.8,0-18.02,9.77-33.76,24.3-42.22,1-.58,1.8-1.49,2.06-2.62,.73-3.1-.71-6.1-1.41-8.46s-.74-2.99-2.43-6.14c-.95-1.78-3.19-2.5-4.98-1.58-22.93,11.78-38.35,36.1-37.22,63.9,1.47,36.1,31.27,65.12,67.39,65.7,38.39,.62,69.7-30.32,69.7-68.57,0-26.35-14.87-49.22-36.68-60.7-1.94-1.02-4.37-.16-5.25,1.85Z" stroke="#000" stroke-miterlimit="10"/></g></g></svg>