<?xml version="1.0" encoding="UTF-8"?><svg xmlns="http://www.w3.org/2000/svg" width="2464.89" height="1757.94" viewBox="0 0 2464.89 1757.94"><g id="a"><polygon points="919.02 112.6 1260.47 361.5 1270.41 346.77 920.52 110.54 919.02 112.6" fill="#999"/><polygon points="1681.95 14.15 1225.07 323.7 1238.95 340.95 1684.49 18.27 1681.95 14.15" fill="#999"/><ellipse cx="919.02" cy="110.54" rx="9.41" ry="9.55" transform="translate(659.12 998.95) rotate(-80.55)" fill="#999"/><ellipse cx="1684.1" cy="13.94" rx="13.44" ry="13.94" fill="#999"/><ellipse cx="1232.84" cy="333.76" rx="108.5" ry="27.74" fill="#999"/><rect x="2.5" y="318.2" width="2459.89" height="1437.24" rx="63.57" ry="63.57" fill="#a67c52" stroke="#000" stroke-miterlimit="10" stroke-width="5"/><rect x="106.03" y="389.57" width="2000.89" height="1315.68" rx="33.34" ry="33.34" fill="gray" stroke="#000" stroke-miterlimit="10" stroke-width="5"/><rect x="192.2" y="448.03" width="1829.06" height="1202.7" rx="10.81" ry="10.81" fill="none" stroke="#000" stroke-miterlimit="10" stroke-width="5"/><line x1="119.05" y1="396.13" x2="192.2" y2="448.03" fill="gray" stroke="#000" stroke-miterlimit="10" stroke-width="5"/><line x1="196.74" y1="1650.73" x2="123.59" y2="1697.72" fill="gray" stroke="#000" stroke-miterlimit="10" stroke-width="5"/><line x1="2021.26" y1="1651.14" x2="2094.9" y2="1697.31" fill="gray" stroke="#000" stroke-miterlimit="10" stroke-width="5"/><line x1="2021.26" y1="452.73" x2="2097.05" y2="404.42" fill="gray" stroke="#000" stroke-miterlimit="10" stroke-width="5"/><path d="M187.2,444.14H2037.05V1658.7H187.2V444.14Z" fill="#131313"/><path d="M187.2,444.14H451.47v809.71H187.2V444.14Z" fill="silver"/><path d="M451.47,444.14h264.26v809.71H451.47V444.14Z" fill="#c0c000"/><path d="M715.73,444.14h264.26v809.71h-264.26V444.14Z" fill="#00c0c0"/><path d="M980,444.14h264.26v809.71h-264.26V444.14Z" fill="#00c000"/><path d="M1244.26,444.14h264.26v809.71h-264.26V444.14Z" fill="#c000c0"/><path d="M1508.52,444.14h264.26v809.71h-264.26V444.14Z" fill="#c00000"/><path d="M1772.79,444.14h264.26v809.71h-264.26V444.14ZM187.2,1253.85H451.47v101.21H187.2v-101.21Z" fill="#0000c0"/><path d="M715.73,1253.85h264.26v101.21h-264.26v-101.21Z" fill="#c000c0"/><path d="M1244.26,1253.85h264.26v101.21h-264.26v-101.21Z" fill="#00c0c0"/><path d="M1772.79,1253.85h264.26v101.21h-264.26v-101.21Z" fill="silver"/><path d="M187.2,1355.06h330.33v303.64H187.2v-303.64Z" fill="#00214c"/><path d="M517.53,1355.06h330.33v303.64h-330.33v-303.64Z" fill="#fff"/><path d="M847.86,1355.06h330.33v303.64h-330.33v-303.64Z" fill="#32006a"/><path d="M1508.52,1355.06h88.09v303.64h-88.09v-303.64Z" fill="#090909"/><path d="M1684.7,1355.06h88.09v303.64h-88.09v-303.64Z" fill="#1d1d1d"/><rect x="187.2" y="444.14" width="1849.85" height="1214.56" fill="none" stroke="#000" stroke-miterlimit="10" stroke-width="4"/><rect x="2141.47" y="448.72" width="290.21" height="588.1" fill="#999" stroke="#000" stroke-miterlimit="10" stroke-width="4"/><g><path d="M483.63,929.2c1.03-1.42,2.17-2.48,3.39-3.19,1.23-.71,2.55-1.06,3.96-1.06,2.45,0,4.45,.85,6.01,2.53,1.55,1.69,2.33,4.55,2.33,8.58v14.22c0,4.03-.78,6.91-2.33,8.62-1.55,1.72-3.55,2.57-6.01,2.57-2.23,0-4.03-.63-5.39-1.88-1.36-1.25-2.37-3.6-3.02-7.03-.38-2.29-1.14-4.06-2.29-5.31-2.23-2.45-5.35-4.41-9.36-5.88s-8.02-2.21-12.05-2.21c-5.01,0-9.62,1.09-13.81,3.27-4.2,2.18-7.9,5.72-11.11,10.62-3.22,4.9-4.82,10.73-4.82,17.49v10.87c0,8.06,2.93,14.79,8.79,20.19,5.86,5.39,13.99,8.09,24.39,8.09,6.21,0,11.47-.84,15.77-2.53,2.51-.98,5.18-2.91,8.01-5.8,1.74-1.74,3.11-2.87,4.09-3.39,.98-.52,2.1-.78,3.35-.78,2.23,0,4.19,.85,5.88,2.53,1.69,1.69,2.53,3.68,2.53,5.97s-1.14,4.74-3.43,7.36c-3.32,3.81-7.6,6.81-12.83,8.99-7.03,2.94-14.79,4.41-23.29,4.41-9.92,0-18.85-2.04-26.81-6.13-6.43-3.27-11.9-8.43-16.43-15.49-4.52-7.06-6.78-14.75-6.78-23.09v-11.36c0-8.72,2.03-16.85,6.09-24.39,4.06-7.54,9.68-13.36,16.88-17.45,7.19-4.09,14.82-6.13,22.88-6.13,4.85,0,9.38,.56,13.61,1.68,4.22,1.12,8.16,2.82,11.81,5.11Z"/><path d="M566.17,918.01v89.24h20.1c4.03,0,6.91,.78,8.62,2.33,1.72,1.55,2.57,3.58,2.57,6.09s-.86,4.45-2.57,6.01c-1.72,1.55-4.59,2.33-8.62,2.33h-56.96c-4.03,0-6.91-.78-8.62-2.33s-2.57-3.58-2.57-6.09,.86-4.45,2.57-6.01,4.59-2.33,8.62-2.33h20.1v-72.49h-13.48c-3.98,0-6.84-.78-8.58-2.33-1.74-1.55-2.62-3.58-2.62-6.09s.86-4.45,2.57-6.01,4.59-2.33,8.62-2.33h30.24Z"/><path d="M666.53,949.8v57.45h20.1c4.03,0,6.91,.78,8.62,2.33s2.57,3.58,2.57,6.09-.86,4.45-2.57,6.01-4.59,2.33-8.62,2.33h-56.96c-4.03,0-6.91-.78-8.62-2.33-1.72-1.55-2.57-3.58-2.57-6.09s.86-4.45,2.57-6.01c1.72-1.55,4.59-2.33,8.62-2.33h20.1v-40.7h-13.48c-3.98,0-6.84-.78-8.58-2.33-1.74-1.55-2.62-3.58-2.62-6.09s.86-4.45,2.57-6.01c1.72-1.55,4.59-2.33,8.62-2.33h30.24Zm-2.29-31.79v17.73h-19.94v-17.73h19.94Z"/><path d="M784.79,952.82c2.02-1.91,4.09-2.86,6.21-2.86,2.4,0,4.37,.86,5.93,2.57,1.55,1.72,2.33,4.56,2.33,8.54v10.79c0,4.03-.78,6.89-2.33,8.58-1.55,1.69-3.58,2.53-6.09,2.53-2.29,0-4.22-.65-5.8-1.96-1.14-.98-2.04-2.98-2.7-6.01-.65-3.02-2.23-5.27-4.74-6.74-4.41-2.62-10.05-3.92-16.92-3.92-7.9,0-14.23,2.32-19,6.95-4.77,4.63-7.15,10.49-7.15,17.57,0,6.54,2.29,11.7,6.86,15.49,4.58,3.79,12.18,5.68,22.8,5.68,6.97,0,12.67-.71,17.08-2.12,2.62-.87,5.09-2.36,7.44-4.45,2.34-2.1,4.47-3.15,6.37-3.15,2.29,0,4.26,.85,5.92,2.53,1.66,1.69,2.49,3.68,2.49,5.97,0,3.71-2.53,7.22-7.6,10.54-7.52,4.96-18.52,7.44-33.02,7.44-13.02,0-23.16-2.7-30.4-8.09-9.81-7.25-14.71-17.16-14.71-29.75,0-11.93,3.98-21.81,11.93-29.62,7.95-7.82,18.33-11.73,31.14-11.73,4.63,0,8.93,.44,12.91,1.31,3.98,.87,7.65,2.18,11.03,3.92Z"/><path d="M845.34,996.13v27.87h-19.61c-4.03,0-6.91-.78-8.62-2.33s-2.57-3.58-2.57-6.09,.87-4.45,2.61-6.01c1.74-1.55,4.6-2.33,8.58-2.33h2.86v-72.49h-2.86c-4.03,0-6.91-.78-8.62-2.33s-2.57-3.58-2.57-6.09,.86-4.45,2.57-6.01,4.59-2.33,8.62-2.33h19.61v56.47l13.08-10.54c-1.36-2.34-2.04-4.25-2.04-5.72,0-2.5,.84-4.54,2.53-6.09,1.69-1.55,4.55-2.33,8.58-2.33h19.12c4.03,0,6.91,.78,8.62,2.33s2.57,3.58,2.57,6.09-.86,4.45-2.57,6.01-4.59,2.33-8.62,2.33h-4.66l-20.35,16.51,27.38,24.19h4.9c4.03,0,6.91,.78,8.62,2.33s2.57,3.58,2.57,6.09-.86,4.45-2.57,6.01-4.59,2.33-8.62,2.33h-19.29c-4.03,0-6.91-.78-8.62-2.33-1.72-1.55-2.57-3.58-2.57-6.09,0-2.12,.93-4.22,2.78-6.29l-17.73-15.69-3.11,2.53Z"/><path d="M1075.07,1024v-3.92c-4.2,2.23-8.83,3.91-13.89,5.03s-9.67,1.67-13.81,1.67c-8.99,0-16.29-2.38-21.9-7.15-5.61-4.77-8.42-10.04-8.42-15.81,0-7.03,3.58-13.55,10.75-19.57,7.16-6.02,17.07-9.03,29.71-9.03,5.07,0,10.92,.54,17.57,1.63v-4c0-2.51-1.08-4.55-3.23-6.13-2.15-1.58-6.25-2.37-12.3-2.37-4.96,0-11.39,.98-19.29,2.94-2.94,.71-5.23,1.06-6.86,1.06-2.23,0-4.13-.8-5.68-2.41-1.55-1.61-2.33-3.66-2.33-6.17,0-1.42,.27-2.64,.82-3.68,.54-1.03,1.31-1.87,2.29-2.49,.98-.63,3.02-1.38,6.13-2.25,4.14-1.14,8.36-2.06,12.67-2.74,4.3-.68,8.2-1.02,11.69-1.02,10.41,0,18.48,2.25,24.23,6.74,5.75,4.5,8.62,10.64,8.62,18.43v34.49h2.86c4.03,0,6.91,.78,8.62,2.33s2.57,3.58,2.57,6.09-.86,4.45-2.57,6.01-4.59,2.33-8.62,2.33h-19.61Zm0-29.99c-6.7-1.31-12.89-1.96-18.55-1.96-6.81,0-12.67,1.66-17.57,4.99-3.05,2.12-4.58,4.28-4.58,6.46,0,1.58,.74,2.86,2.21,3.84,2.72,1.8,6.46,2.7,11.2,2.7,4.03,0,8.59-.79,13.69-2.37,5.09-1.58,9.63-3.73,13.61-6.46v-7.19Z"/><path d="M1143.47,949.8v5.64c3.05-2.62,6.42-4.58,10.09-5.88s7.67-1.96,11.97-1.96c9.92,0,17.76,3.08,23.54,9.24,4.58,4.9,6.87,11.33,6.87,19.29v31.14c3.54,0,6.16,.78,7.85,2.33,1.69,1.55,2.53,3.58,2.53,6.09s-.86,4.45-2.57,6.01-4.59,2.33-8.62,2.33h-15.12c-4.03,0-6.91-.78-8.62-2.33-1.72-1.55-2.57-3.58-2.57-6.09s.84-4.45,2.53-6.01c1.69-1.55,4.3-2.33,7.84-2.33v-31.63c0-3.65-.98-6.32-2.94-8.01-2.56-2.18-6.4-3.27-11.52-3.27-3.87,0-7.26,.75-10.17,2.25-2.92,1.5-6.61,4.67-11.07,9.52v31.14c4.3,0,7.08,.41,8.34,1.23,2.67,1.63,4,4.03,4,7.19,0,2.45-.86,4.45-2.57,6.01-1.72,1.55-4.59,2.33-8.62,2.33h-19.04c-4.03,0-6.91-.78-8.62-2.33s-2.57-3.58-2.57-6.09c0-3.05,1.31-5.42,3.92-7.11,1.31-.82,4.11-1.23,8.42-1.23v-40.7c-3.54,0-6.16-.79-7.84-2.37-1.69-1.58-2.53-3.6-2.53-6.05s.86-4.45,2.57-6.01c1.72-1.55,4.59-2.33,8.62-2.33h15.94Z"/><path d="M1251.51,1023.43l-29.01-56.88c-2.72-.33-4.79-1.25-6.21-2.78-1.42-1.52-2.12-3.38-2.12-5.56,0-2.5,.86-4.54,2.58-6.09,1.72-1.55,4.59-2.33,8.62-2.33h15.28c4.03,0,6.91,.78,8.62,2.33,1.72,1.55,2.57,3.58,2.57,6.09s-.86,4.45-2.57,6.01c-1.72,1.55-4.43,2.33-8.13,2.33l19.78,38.49,19.61-38.49c-3.6,0-6.25-.78-7.97-2.33-1.72-1.55-2.57-3.58-2.57-6.09s.86-4.45,2.57-6.01c1.72-1.55,4.59-2.33,8.62-2.33h15.77c3.98,0,6.82,.78,8.54,2.33,1.72,1.55,2.57,3.58,2.57,6.09,0,2.24-.74,4.13-2.21,5.68-1.47,1.55-3.65,2.44-6.54,2.66l-38.41,75.68c4.19,0,6.95,.41,8.25,1.23,2.62,1.69,3.92,4.09,3.92,7.19,0,2.45-.86,4.45-2.57,6.01-1.72,1.55-4.59,2.33-8.62,2.33h-36.53c-4.03,0-6.91-.78-8.62-2.33-1.72-1.55-2.58-3.55-2.58-6.01s.86-4.54,2.58-6.09c1.72-1.55,4.59-2.33,8.62-2.33h16.67l9.48-18.8Z"/><path d="M1361.43,993.11l-11.6,30.89h-15.77l-14.06-57.45c-3.05-.16-5.35-1.02-6.91-2.57s-2.33-3.5-2.33-5.84,.86-4.45,2.57-6.01c1.72-1.55,4.59-2.33,8.62-2.33h15.61c4.03,0,6.91,.78,8.62,2.33,1.72,1.55,2.57,3.58,2.57,6.09s-.98,4.63-2.94,6.38c-1.47,1.31-4.36,1.96-8.66,1.96l6.37,26.56,10.38-27.21h14.87l10.46,27.21,6.54-26.56c-4.14,0-6.86-.41-8.17-1.23-2.62-1.69-3.92-4.09-3.92-7.19,0-2.45,.86-4.45,2.57-6.01s4.59-2.33,8.62-2.33h15.77c4.03,0,6.91,.78,8.62,2.33s2.57,3.58,2.57,6.09c0,2.24-.75,4.13-2.25,5.68-1.5,1.55-3.72,2.44-6.66,2.66l-13.73,57.45h-15.53l-12.26-30.89Z"/><path d="M1444.46,918.01v35.71c3.49-2.07,7.01-3.61,10.58-4.62,3.57-1.01,7.18-1.51,10.83-1.51,5.77,0,10.92,.98,15.45,2.94,4.52,1.96,8.27,5.05,11.24,9.28,2.97,4.22,4.45,9.55,4.45,15.98v31.46c4.25,0,7.03,.41,8.34,1.23,2.62,1.69,3.92,4.09,3.92,7.19,0,2.45-.85,4.45-2.53,6.01s-4.55,2.33-8.58,2.33h-19.12c-3.98,0-6.82-.78-8.54-2.33s-2.57-3.58-2.57-6.09c0-3.05,1.31-5.42,3.92-7.11,1.36-.87,4.14-1.28,8.34-1.23v-30.32c0-4.3-.98-7.33-2.94-9.07-2.56-2.34-6.35-3.51-11.36-3.51-3.71,0-6.99,.72-9.85,2.17-2.86,1.44-6.72,4.56-11.56,9.36v31.38c4.3,0,7.08,.41,8.34,1.23,2.67,1.69,4,4.09,4,7.19,0,2.45-.86,4.45-2.57,6.01-1.72,1.55-4.59,2.33-8.62,2.33h-19.04c-4.03,0-6.91-.78-8.62-2.33-1.72-1.55-2.57-3.58-2.57-6.09,0-3.05,1.33-5.42,4-7.11,1.31-.87,4.09-1.28,8.34-1.23v-72.49h-2.86c-4.03,0-6.91-.78-8.62-2.33s-2.57-3.58-2.57-6.09,.86-4.45,2.57-6.01,4.59-2.33,8.62-2.33h19.61Z"/><path d="M1604.23,995.4h-68.73c1.74,4.36,4.83,7.87,9.28,10.54,4.44,2.67,10.45,4,18.02,4,6.21,0,14.47-1.33,24.76-4,4.25-1.09,7.19-1.63,8.83-1.63,2.23,0,4.11,.79,5.64,2.37s2.29,3.57,2.29,5.97c0,2.18-.82,4.03-2.45,5.56-2.18,2.02-7.49,3.94-15.94,5.76-8.45,1.83-16.56,2.74-24.35,2.74-13.4,0-24.12-3.79-32.16-11.36-8.04-7.57-12.05-16.89-12.05-27.95,0-11.77,4.34-21.34,13.04-28.73,8.69-7.38,18.7-11.07,30.03-11.07,6.81,0,13.06,1.2,18.76,3.6,5.69,2.4,9.93,4.99,12.71,7.76,3.92,4.03,7.16,9.02,9.73,14.96,1.74,4.14,2.62,8.94,2.62,14.38v7.11Zm-18.55-16.75c-2.56-4.79-5.91-8.38-10.05-10.75-4.14-2.37-9.07-3.55-14.79-3.55s-10.57,1.18-14.71,3.55-7.52,5.95-10.13,10.75h49.69Z"/><path d="M1659.15,949.8v10.46c7.03-5.07,12.57-8.44,16.63-10.13,4.06-1.69,7.86-2.53,11.4-2.53,5.45,0,10.73,2.02,15.85,6.05,3.49,2.72,5.23,5.5,5.23,8.34,0,2.4-.83,4.43-2.49,6.09s-3.67,2.49-6.01,2.49c-2.07,0-4.25-1.03-6.54-3.11-2.29-2.07-4.33-3.11-6.13-3.11-2.34,0-5.84,1.47-10.5,4.41-4.66,2.94-10.47,7.35-17.45,13.24v25.25h23.86c4.03,0,6.91,.78,8.62,2.33s2.57,3.58,2.57,6.09-.86,4.45-2.57,6.01-4.59,2.33-8.62,2.33h-50.59c-4.03,0-6.91-.78-8.62-2.33-1.72-1.55-2.57-3.58-2.57-6.09s.86-4.45,2.57-6.01c1.72-1.55,4.59-2.33,8.62-2.33h9.97v-40.7h-6.05c-4.03,0-6.91-.78-8.62-2.33s-2.57-3.58-2.57-6.09,.86-4.45,2.57-6.01,4.59-2.33,8.62-2.33h22.8Z"/><path d="M1805.11,995.4h-68.73c1.74,4.36,4.83,7.87,9.28,10.54,4.44,2.67,10.45,4,18.02,4,6.21,0,14.47-1.33,24.76-4,4.25-1.09,7.19-1.63,8.83-1.63,2.23,0,4.11,.79,5.64,2.37s2.29,3.57,2.29,5.97c0,2.18-.82,4.03-2.45,5.56-2.18,2.02-7.49,3.94-15.94,5.76-8.45,1.83-16.56,2.74-24.35,2.74-13.4,0-24.12-3.79-32.16-11.36-8.04-7.57-12.05-16.89-12.05-27.95,0-11.77,4.34-21.34,13.04-28.73,8.69-7.38,18.7-11.07,30.03-11.07,6.81,0,13.06,1.2,18.76,3.6,5.69,2.4,9.93,4.99,12.71,7.76,3.92,4.03,7.16,9.02,9.73,14.96,1.74,4.14,2.62,8.94,2.62,14.38v7.11Zm-18.55-16.75c-2.56-4.79-5.91-8.38-10.05-10.75-4.14-2.37-9.07-3.55-14.79-3.55s-10.57,1.18-14.71,3.55-7.52,5.95-10.13,10.75h49.69Z"/><path d="M654.11,1167.4v33.59c0,3.6,.74,5.97,2.21,7.11,2.29,1.8,6.37,2.7,12.26,2.7,8.55,0,16.45-1.82,23.7-5.48,2.78-1.42,4.96-2.12,6.54-2.12,2.18,0,4.07,.82,5.68,2.45,1.61,1.63,2.41,3.62,2.41,5.97,0,2.18-.87,4.06-2.62,5.64-2.67,2.56-7.94,4.92-15.81,7.07-7.87,2.15-14.51,3.23-19.9,3.23-10.41,0-18.21-2.25-23.41-6.74-5.2-4.5-7.8-10.01-7.8-16.55v-36.86h-6.05c-4.03,0-6.91-.78-8.62-2.33s-2.57-3.58-2.57-6.09,.86-4.45,2.57-6.01,4.59-2.33,8.62-2.33h6.05v-15.12c0-4.03,.78-6.91,2.33-8.62s3.58-2.57,6.09-2.57,4.45,.86,6.01,2.57,2.33,4.59,2.33,8.62v15.12h30.97c4.03,0,6.91,.78,8.62,2.33s2.57,3.58,2.57,6.09-.86,4.45-2.57,6.01-4.59,2.33-8.62,2.33h-30.97Z"/><path d="M802.19,1189.13c0,6.43-1.79,12.66-5.35,18.67-3.57,6.02-8.88,10.82-15.94,14.38-7.06,3.57-14.42,5.35-22.11,5.35s-14.93-1.76-21.9-5.27c-6.97-3.51-12.29-8.29-15.94-14.34-3.65-6.05-5.48-12.37-5.48-18.96s1.85-13.28,5.56-19.74c3.7-6.46,9.03-11.54,15.98-15.24,6.95-3.71,14.21-5.56,21.78-5.56s14.97,1.89,22.02,5.68c7.06,3.79,12.38,8.88,15.98,15.28,3.6,6.4,5.39,12.98,5.39,19.74Zm-16.75,.08c0-5.39-1.93-10.35-5.8-14.87-5.29-6.1-12.23-9.15-20.84-9.15-7.57,0-13.89,2.42-18.96,7.27-5.07,4.85-7.6,10.46-7.6,16.83,0,5.23,2.56,10.12,7.68,14.67,5.12,4.55,11.41,6.82,18.88,6.82s13.84-2.27,18.96-6.82c5.12-4.55,7.68-9.47,7.68-14.75Z"/><path d="M977.65,1170.26c-2.73-1.69-5.59-2.96-8.58-3.8-3-.84-6.13-1.27-9.4-1.27-6.48,0-11.63,1.06-15.45,3.19-1.69,.93-2.53,1.93-2.53,3.02,0,1.25,1.14,2.48,3.43,3.68,1.74,.87,5.64,1.72,11.69,2.53,11.11,1.53,18.85,3.05,23.21,4.58,5.72,2.02,10.13,5.01,13.24,8.99,3.11,3.98,4.66,8.17,4.66,12.58,0,5.99-2.64,11.01-7.93,15.04-7.57,5.83-17.41,8.75-29.5,8.75-4.85,0-9.33-.42-13.44-1.27-4.11-.84-7.89-2.08-11.32-3.72-.82,.71-1.69,1.25-2.62,1.63-.93,.38-1.88,.57-2.86,.57-2.62,0-4.7-.86-6.25-2.57-1.55-1.72-2.33-4.59-2.33-8.62v-5.64c0-4.03,.78-6.91,2.33-8.62,1.55-1.72,3.58-2.57,6.09-2.57,2.02,0,3.7,.56,5.07,1.68,1.36,1.12,2.42,3.04,3.19,5.76,2.56,2.18,5.64,3.83,9.23,4.94,3.6,1.12,7.74,1.67,12.42,1.67,7.68,0,13.65-1.2,17.9-3.6,2.02-1.2,3.02-2.45,3.02-3.76,0-2.18-1.44-3.98-4.33-5.39-2.89-1.42-8.85-2.62-17.9-3.6-13.46-1.42-22.45-4.14-26.97-8.17-4.52-3.98-6.78-8.88-6.78-14.71s2.53-10.98,7.6-14.96c6.86-5.45,15.85-8.17,26.97-8.17,3.87,0,7.59,.37,11.16,1.1,3.57,.74,6.99,1.87,10.26,3.39,1.03-.76,2-1.33,2.9-1.72,.9-.38,1.73-.57,2.49-.57,2.29,0,4.19,.86,5.72,2.57,1.52,1.72,2.29,4.59,2.29,8.62v4.09c0,3.65-.44,6.13-1.31,7.44-1.74,2.51-4.11,3.76-7.11,3.76-2.02,0-3.79-.63-5.31-1.88-1.53-1.25-2.51-2.91-2.94-4.99Z"/><path d="M1055.86,1167.4v33.59c0,3.6,.74,5.97,2.21,7.11,2.29,1.8,6.37,2.7,12.26,2.7,8.55,0,16.45-1.82,23.7-5.48,2.78-1.42,4.96-2.12,6.54-2.12,2.18,0,4.07,.82,5.68,2.45,1.61,1.63,2.41,3.62,2.41,5.97,0,2.18-.87,4.06-2.62,5.64-2.67,2.56-7.94,4.92-15.81,7.07-7.87,2.15-14.51,3.23-19.9,3.23-10.41,0-18.21-2.25-23.41-6.74-5.2-4.5-7.8-10.01-7.8-16.55v-36.86h-6.05c-4.03,0-6.91-.78-8.62-2.33s-2.57-3.58-2.57-6.09,.86-4.45,2.57-6.01,4.59-2.33,8.62-2.33h6.05v-15.12c0-4.03,.78-6.91,2.33-8.62s3.58-2.57,6.09-2.57,4.45,.86,6.01,2.57,2.33,4.59,2.33,8.62v15.12h30.97c4.03,0,6.91,.78,8.62,2.33s2.57,3.58,2.57,6.09-.86,4.45-2.57,6.01-4.59,2.33-8.62,2.33h-30.97Z"/><path d="M1175.51,1224.85v-3.92c-4.2,2.23-8.83,3.91-13.89,5.03s-9.67,1.67-13.81,1.67c-8.99,0-16.29-2.38-21.9-7.15-5.61-4.77-8.42-10.04-8.42-15.81,0-7.03,3.58-13.55,10.75-19.57,7.16-6.02,17.07-9.03,29.71-9.03,5.07,0,10.92,.54,17.57,1.63v-4c0-2.51-1.08-4.55-3.23-6.13s-6.25-2.37-12.3-2.37c-4.96,0-11.39,.98-19.29,2.94-2.94,.71-5.23,1.06-6.87,1.06-2.23,0-4.13-.8-5.68-2.41-1.55-1.61-2.33-3.66-2.33-6.17,0-1.42,.27-2.64,.82-3.68,.54-1.03,1.31-1.87,2.29-2.49,.98-.63,3.02-1.38,6.13-2.25,4.14-1.14,8.36-2.06,12.67-2.74,4.3-.68,8.2-1.02,11.69-1.02,10.41,0,18.48,2.25,24.23,6.74,5.75,4.5,8.62,10.64,8.62,18.43v34.49h2.86c4.03,0,6.91,.78,8.62,2.33,1.71,1.55,2.57,3.58,2.57,6.09s-.86,4.45-2.57,6.01c-1.72,1.55-4.59,2.33-8.62,2.33h-19.61Zm0-29.99c-6.7-1.31-12.88-1.96-18.55-1.96-6.81,0-12.67,1.66-17.57,4.99-3.05,2.12-4.58,4.28-4.58,6.46,0,1.58,.74,2.86,2.21,3.84,2.72,1.8,6.46,2.7,11.2,2.7,4.03,0,8.59-.79,13.69-2.37,5.09-1.58,9.63-3.73,13.61-6.46v-7.19Z"/><path d="M1257.4,1150.64v10.46c7.03-5.07,12.57-8.44,16.63-10.13,4.06-1.69,7.86-2.53,11.4-2.53,5.45,0,10.73,2.02,15.85,6.05,3.49,2.72,5.23,5.5,5.23,8.34,0,2.4-.83,4.43-2.49,6.09s-3.67,2.49-6.01,2.49c-2.07,0-4.25-1.03-6.54-3.11-2.29-2.07-4.33-3.11-6.13-3.11-2.34,0-5.84,1.47-10.5,4.41-4.66,2.94-10.47,7.35-17.45,13.24v25.25h23.86c4.03,0,6.91,.78,8.62,2.33s2.57,3.58,2.57,6.09-.86,4.45-2.57,6.01-4.59,2.33-8.62,2.33h-50.59c-4.03,0-6.91-.78-8.62-2.33-1.72-1.55-2.57-3.58-2.57-6.09s.86-4.45,2.57-6.01c1.72-1.55,4.59-2.33,8.62-2.33h9.97v-40.7h-6.05c-4.03,0-6.91-.78-8.62-2.33s-2.57-3.58-2.57-6.09,.86-4.45,2.57-6.01,4.59-2.33,8.62-2.33h22.8Z"/><path d="M1357.18,1167.4v33.59c0,3.6,.74,5.97,2.21,7.11,2.29,1.8,6.38,2.7,12.26,2.7,8.55,0,16.45-1.82,23.7-5.48,2.78-1.42,4.96-2.12,6.54-2.12,2.18,0,4.07,.82,5.68,2.45,1.61,1.63,2.41,3.62,2.41,5.97,0,2.18-.87,4.06-2.62,5.64-2.67,2.56-7.94,4.92-15.81,7.07s-14.51,3.23-19.9,3.23c-10.41,0-18.21-2.25-23.41-6.74-5.2-4.5-7.8-10.01-7.8-16.55v-36.86h-6.05c-4.03,0-6.91-.78-8.62-2.33-1.72-1.55-2.58-3.58-2.58-6.09s.86-4.45,2.58-6.01c1.72-1.55,4.59-2.33,8.62-2.33h6.05v-15.12c0-4.03,.78-6.91,2.33-8.62s3.58-2.57,6.09-2.57,4.45,.86,6.01,2.57c1.55,1.72,2.33,4.59,2.33,8.62v15.12h30.97c4.03,0,6.91,.78,8.62,2.33,1.72,1.55,2.57,3.58,2.57,6.09s-.86,4.45-2.57,6.01c-1.72,1.55-4.59,2.33-8.62,2.33h-30.97Z"/><path d="M1474.54,1216.43c0,3.16-1.12,5.8-3.35,7.93-2.23,2.12-5.31,3.19-9.23,3.19s-7-1.06-9.24-3.19c-2.23-2.12-3.35-4.77-3.35-7.93s1.12-5.8,3.35-7.93c2.23-2.12,5.31-3.19,9.24-3.19s7,1.06,9.23,3.19c2.23,2.12,3.35,4.77,3.35,7.93Z"/><path d="M1574.98,1216.43c0,3.16-1.12,5.8-3.35,7.93-2.23,2.12-5.31,3.19-9.23,3.19s-7-1.06-9.24-3.19c-2.23-2.12-3.35-4.77-3.35-7.93s1.12-5.8,3.35-7.93c2.23-2.12,5.31-3.19,9.24-3.19s7,1.06,9.23,3.19c2.23,2.12,3.35,4.77,3.35,7.93Z"/><path d="M1675.41,1216.43c0,3.16-1.12,5.8-3.35,7.93-2.23,2.12-5.31,3.19-9.23,3.19s-7-1.06-9.24-3.19c-2.23-2.12-3.35-4.77-3.35-7.93s1.12-5.8,3.35-7.93c2.23-2.12,5.31-3.19,9.24-3.19s7,1.06,9.23,3.19c2.23,2.12,3.35,4.77,3.35,7.93Z"/></g><g><circle cx="2286.57" cy="618.39" r="115.93" fill="#4d4d4d" stroke="#000" stroke-miterlimit="10" stroke-width="4"/><line x1="2343.61" y1="544.16" x2="2229.53" y2="680.04" fill="none" stroke="#000" stroke-miterlimit="10" stroke-width="6"/></g><g><circle cx="2286.57" cy="879.43" r="82.15" fill="#4d4d4d" stroke="#000" stroke-miterlimit="10" stroke-width="4"/><line x1="2332.28" y1="917.36" x2="2245.89" y2="842.07" fill="none" stroke="#000" stroke-miterlimit="10" stroke-width="6"/></g><ellipse cx="2289.08" cy="1216.99" rx="117.58" ry="8.19"/><ellipse cx="2289.08" cy="1345.14" rx="117.58" ry="8.19"/><ellipse cx="2289.08" cy="1302.42" rx="117.58" ry="8.19"/><ellipse cx="2289.08" cy="1259.71" rx="117.58" ry="8.19"/><ellipse cx="2289.08" cy="1430.56" rx="117.58" ry="8.19"/><ellipse cx="2289.08" cy="1387.85" rx="117.58" ry="8.19"/></g><g id="b"><text transform="translate(465.98 680.04)" font-family="CourierNewPS-BoldMT, &apos;Courier New&apos;" font-size="58.28"><tspan x="0" y="0">Left click/right arrow = Next channel</tspan><tspan x="0" y="69.93">Right click/left arrow = Back channel</tspan></text></g></svg>