<?xml version="1.0" encoding="UTF-8"?><svg id="a" xmlns="http://www.w3.org/2000/svg" width="1980.82" height="1985.04" viewBox="0 0 1980.82 1985.04"><path d="M1794.06,70H186.76c-64.49,0-116.76,69.29-116.76,154.75V1568.05c0,85.47,52.28,154.76,116.76,154.76h73.89c5.67,0,10.26,6.09,10.26,13.6l-39.99,165.77c0,71.29,246.28-177.01,301.01-177.62,226.98-2.52,165.16-1.76,180.27-1.76H1794.06c64.49,0,116.76-69.29,116.76-154.75V224.75c0-85.47-52.28-154.75-116.76-154.75Z" fill="none" stroke="#b7b7b7" stroke-miterlimit="10" stroke-width="140"/><rect x="352.92" y="541.09" width="1207.1" height="134.16" rx="28.07" ry="28.07" fill="#b7b7b7" stroke="#b7b7b7" stroke-miterlimit="10" stroke-width="8"/><rect x="352.92" y="870.94" width="950.14" height="134.16" rx="28.07" ry="28.07" fill="#b7b7b7" stroke="#b7b7b7" stroke-miterlimit="10" stroke-width="9"/></svg>