<?xml version="1.0" encoding="UTF-8"?><svg id="a" xmlns="http://www.w3.org/2000/svg" width="797" height="797" xmlns:xlink="http://www.w3.org/1999/xlink" viewBox="0 0 797 797"><defs><filter id="b" filterUnits="userSpaceOnUse"><feOffset dx="7" dy="7"/><feGaussianBlur result="c" stdDeviation="11"/><feFlood flood-color="#000" flood-opacity="1"/><feComposite in2="c" operator="in"/><feComposite in="SourceGraphic"/></filter></defs><circle cx="391.74" cy="391.65" r="358.06" fill="red" filter="url(#b)" stroke="#000" stroke-miterlimit="10" stroke-width="14"/><rect x="352.16" y="114.93" width="79.16" height="264.1" rx="11.4" ry="11.4" transform="translate(783.48 493.96) rotate(-180)" stroke="#000" stroke-miterlimit="10"/><path d="M484.26,189.21c-6.64,15.02-10.04,28.76-9.58,42.7,.28,8.56,4.82,16.32,11.91,21.12,47.69,32.25,78.11,88.1,74.4,150.81-5.11,86.38-76.12,155.81-162.58,159.12-96.68,3.71-176.23-73.57-176.23-169.43,0-62.58,33.92-117.21,84.36-146.59,3.47-2.02,6.25-5.19,7.17-9.09,2.54-10.75-2.46-21.16-4.91-29.39-2.43-8.16-2.58-10.37-8.44-21.32-3.3-6.17-11.08-8.69-17.3-5.5-79.6,40.9-133.16,125.33-129.22,221.85,5.11,125.34,108.56,226.1,233.98,228.11,133.29,2.14,242.01-105.27,242.01-238.07,0-91.5-51.64-170.88-127.34-210.75-6.75-3.55-15.16-.55-18.25,6.42Z" stroke="#000" stroke-miterlimit="10"/></svg>