<?xml version="1.0" encoding="UTF-8"?><svg id="a" xmlns="http://www.w3.org/2000/svg" width="1638.18" height="1757.61" viewBox="0 0 1638.18 1757.61"><circle cx="542.42" cy="668.61" r="343.15" fill="none" stroke="#000" stroke-miterlimit="10" stroke-width="90"/><path d="M1173.81,1292.27l-377.95-313.85c-19.02-15.04-24.04-27.61-6.88-49.31l42.7-46.38c17.16-21.69,21.06-17.74,40.07-2.69l392.23,298.25c19.02,15.04,20.52,44.83,3.35,66.52l-28.02,35.42c-17.16,21.69-46.49,27.09-65.51,12.04Z" stroke="#000" stroke-miterlimit="10" stroke-width="90"/><path d="M52.92,.22c-1.4-1.41-20.36,4.01-34.91,18.46C3.46,33.13-1.16,51.14,.24,52.55c1.04,1.04,4.3-8.07,10.72-19.17,4.3-7.43,10.11-14.07,15.17-17.76C42.61,3.63,54.32,1.63,52.92,.22Z" fill="none" stroke="#000" stroke-miterlimit="10" stroke-width="0"/><path d="M1365.06,1757.01c1.08,1.68,20.75,.33,38-10.76,17.25-11.09,25.53-27.73,24.45-29.41-.8-1.24-5.89,6.99-14.49,16.5-5.76,6.37-12.82,11.64-18.55,14.19-18.62,8.29-30.49,7.79-29.41,9.47Z" fill="none" stroke="#000" stroke-miterlimit="10" stroke-width="0"/></svg>