<?xml version="1.0" encoding="UTF-8"?><svg id="a" xmlns="http://www.w3.org/2000/svg" width="1232.67" height="1546.51" viewBox="0 0 1232.67 1546.51"><path d="M617.7,1501.51H302.61c-142.28,0-257.61-115.34-257.61-257.61L223.65,699.2c16.02-48.85,23.61-100.05,22.54-151.44-2.82-134.6-6.23-315.91-7.86-430.54l191.61,14.97,203.39-18.5c1.77,54.74,7.25,310.84,9.67,462.61,.55,34.63,7.08,68.9,19.28,101.32l213.03,566.27c0,142.28-115.34,257.61-257.61,257.61Z" fill="none" stroke="#000" stroke-miterlimit="10" stroke-width="90"/><line x1="625.62" y1="332.34" x2="460.16" y2="332.34" fill="none" stroke="#000" stroke-miterlimit="10" stroke-width="90"/><line x1="625.62" y1="463.13" x2="532.49" y2="463.13" fill="none" stroke="#000" stroke-miterlimit="10" stroke-width="90"/><line x1="642.79" y1="564.17" x2="469.07" y2="564.17" fill="none" stroke="#000" stroke-miterlimit="10" stroke-width="90"/><line x1="625.62" y1="227.31" x2="532.49" y2="227.31" fill="none" stroke="#000" stroke-miterlimit="10" stroke-width="90"/><path d="M668.23,88.6c0-24.08-106.69-43.6-238.29-43.6s-231.03,19.52-231.03,43.6,99.42,43.6,231.03,43.6,238.29-19.52,238.29-43.6Z" fill="none" stroke="#000" stroke-miterlimit="10" stroke-width="90"/><path d="M123.84,997.76s74.14,96.06,196.08,40.29c121.94-55.77,119.26-80.12,201-11.44,81.74,68.68,254.3-9.9,249.24-61.95" fill="none" stroke="#000" stroke-miterlimit="10" stroke-width="90"/></svg>