<?xml version="1.0" encoding="UTF-8"?><svg xmlns="http://www.w3.org/2000/svg" width="1467.05" height="1320.1" viewBox="0 0 1467.05 1320.1"><g id="a"><rect x="316.49" y="78.99" width="649.52" height="1162.61" rx="32.22" ry="32.22" transform="translate(-277.24 600.51) rotate(-42.11)" fill="none" stroke="#000" stroke-miterlimit="10" stroke-width="47"/><path d="M1250.06,892.79l-24.12,21.88c-13.2,11.97-33.61,10.96-45.56-2.26L444.12,97.46c-11.93-13.2-10.9-33.57,2.3-45.5l22.27-20.13c13.18-11.92,33.52-10.91,45.47,2.25l738.1,813.21c11.96,13.18,10.97,33.56-2.21,45.52Z" stroke="#000" stroke-miterlimit="10" stroke-width="47"/><line x1="474.57" y1="810.11" x2="814.81" y2="504.14" fill="none" stroke="#000" stroke-miterlimit="10" stroke-width="47"/></g><g id="b"><path d="M837.75,1266.37l-24.12,21.88c-13.2,11.97-33.61,10.96-45.56-2.26L31.81,471.03c-11.93-13.2-10.9-33.57,2.3-45.5l22.27-20.13c13.18-11.92,33.52-10.91,45.47,2.25l738.1,813.21c11.96,13.18,10.97,33.56-2.21,45.52Z" stroke="#000" stroke-miterlimit="10" stroke-width="47"/></g><g id="d"><g><rect x="76.6" y="455.64" width="52.81" height="43.6" rx="6.02" ry="6.02" transform="translate(-293.58 192.34) rotate(-42.11)" fill="#fff" stroke="#fbb03b" stroke-miterlimit="10" stroke-width="47"/><rect x="462.22" y="882.2" width="52.81" height="43.6" rx="6.02" ry="6.02" transform="translate(-480.08 561.08) rotate(-42.11)" fill="#fff" stroke="#fbb03b" stroke-miterlimit="10" stroke-width="47"/><rect x="167.01" y="555.65" width="52.81" height="43.6" rx="6.02" ry="6.02" transform="translate(-337.31 278.8) rotate(-42.11)" fill="#fff" stroke="#fbb03b" stroke-miterlimit="10" stroke-width="47"/><rect x="256.17" y="654.28" width="52.81" height="43.6" rx="6.02" ry="6.02" transform="translate(-380.42 364.05) rotate(-42.11)" fill="#fff" stroke="#fbb03b" stroke-miterlimit="10" stroke-width="47"/><rect x="359.08" y="768.11" width="52.81" height="43.6" rx="6.02" ry="6.02" transform="translate(-430.19 462.45) rotate(-42.11)" fill="#fff" stroke="#fbb03b" stroke-miterlimit="10" stroke-width="47"/><rect x="748.96" y="1199.39" width="52.81" height="43.6" rx="6.02" ry="6.02" transform="translate(-618.75 835.26) rotate(-42.11)" fill="#fff" stroke="#fbb03b" stroke-miterlimit="10" stroke-width="47"/><rect x="650.25" y="1090.2" width="52.81" height="43.6" rx="6.02" ry="6.02" transform="translate(-571.01 740.87) rotate(-42.11)" fill="#fff" stroke="#fbb03b" stroke-miterlimit="10" stroke-width="47"/></g><rect x="557.08" y="987.14" width="52.81" height="43.6" rx="6.02" ry="6.02" transform="translate(-525.95 651.78) rotate(-42.11)" fill="#fff" stroke="#fbb03b" stroke-miterlimit="10" stroke-width="47"/></g><g id="e"><g><rect x="490.1" y="83.77" width="52.81" height="43.6" rx="6.02" ry="6.02" transform="translate(62.56 373.63) rotate(-42.11)" fill="#fff" stroke="#fbb03b" stroke-miterlimit="10" stroke-width="47"/><rect x="875.72" y="510.33" width="52.81" height="43.6" rx="6.02" ry="6.02" transform="translate(-123.93 742.36) rotate(-42.11)" fill="#fff" stroke="#fbb03b" stroke-miterlimit="10" stroke-width="47"/><rect x="580.52" y="183.78" width="52.81" height="43.6" rx="6.02" ry="6.02" transform="translate(18.84 460.08) rotate(-42.11)" fill="#fff" stroke="#fbb03b" stroke-miterlimit="10" stroke-width="47"/><rect x="669.67" y="282.4" width="52.81" height="43.6" rx="6.02" ry="6.02" transform="translate(-24.28 545.34) rotate(-42.11)" fill="#fff" stroke="#fbb03b" stroke-miterlimit="10" stroke-width="47"/><rect x="772.58" y="396.24" width="52.81" height="43.6" rx="6.02" ry="6.02" transform="translate(-74.05 643.74) rotate(-42.11)" fill="#fff" stroke="#fbb03b" stroke-miterlimit="10" stroke-width="47"/><rect x="1162.46" y="827.52" width="52.81" height="43.6" rx="6.02" ry="6.02" transform="translate(-262.61 1016.55) rotate(-42.11)" fill="#fff" stroke="#fbb03b" stroke-miterlimit="10" stroke-width="47"/><rect x="1063.75" y="718.32" width="52.81" height="43.6" rx="6.02" ry="6.02" transform="translate(-214.87 922.16) rotate(-42.11)" fill="#fff" stroke="#fbb03b" stroke-miterlimit="10" stroke-width="47"/><rect x="970.58" y="615.26" width="52.81" height="43.6" rx="6.02" ry="6.02" transform="translate(-169.81 833.07) rotate(-42.11)" fill="#fff" stroke="#fbb03b" stroke-miterlimit="10" stroke-width="47"/></g></g></svg>