<?xml version="1.0" encoding="UTF-8"?><svg id="a" xmlns="http://www.w3.org/2000/svg" width="1211.17" height="1503.51" viewBox="0 0 1211.17 1503.51"><path d="M596.2,1480.01H281.11c-142.28,0-257.61-115.34-257.61-257.61L202.15,677.7c16.02-48.85,23.61-100.05,22.54-151.44-2.82-134.6-6.23-315.91-7.86-430.54l191.61,14.97,203.39-18.5c1.77,54.74,7.25,310.84,9.67,462.61,.55,34.63,7.08,68.9,19.28,101.32l213.03,566.27c0,142.28-115.34,257.61-257.61,257.61Z" fill="none" stroke="#000" stroke-miterlimit="10" stroke-width="47"/><line x1="604.12" y1="310.84" x2="438.66" y2="310.84" fill="none" stroke="#000" stroke-miterlimit="10" stroke-width="47"/><line x1="604.12" y1="441.63" x2="510.99" y2="441.63" fill="none" stroke="#000" stroke-miterlimit="10" stroke-width="47"/><line x1="621.29" y1="542.67" x2="447.57" y2="542.67" fill="none" stroke="#000" stroke-miterlimit="10" stroke-width="47"/><line x1="604.12" y1="205.81" x2="510.99" y2="205.81" fill="none" stroke="#000" stroke-miterlimit="10" stroke-width="47"/><path d="M646.73,67.1c0-24.08-106.69-43.6-238.29-43.6s-231.03,19.52-231.03,43.6,99.42,43.6,231.03,43.6,238.29-19.52,238.29-43.6Z" fill="none" stroke="#000" stroke-miterlimit="10" stroke-width="47"/><path d="M102.34,976.26s74.14,96.06,196.08,40.29c121.94-55.77,119.26-80.12,201-11.44,81.74,68.68,254.3-9.9,249.24-61.95" fill="none" stroke="#000" stroke-miterlimit="10" stroke-width="47"/></svg>