<?xml version="1.0" encoding="UTF-8"?><svg id="a" xmlns="http://www.w3.org/2000/svg" width="1418.82" height="949.45" viewBox="0 0 1418.82 949.45"><circle cx="304.23" cy="304.23" r="280.73" fill="none" stroke="#000" stroke-miterlimit="10" stroke-width="47"/><path d="M943.65,915.15l-432.21-356.78c-21.69-17.16-28.02-30.76-10.85-52.45l43.22-45.97c17.16-21.69,21.67-17.25,43.36-.09l446.66,341.31c21.69,17.16,25.37,48.66,8.2,70.36l-28.02,35.42c-17.16,21.69-48.66,25.37-70.36,8.2Z" stroke="#000" stroke-miterlimit="10" stroke-width="47"/><path d="M308.98,482.56c-6.45,6.45-82.68-8.17-136.59-62.08-53.91-53.91-65.1-126.71-58.65-133.16,4.77-4.77,14.25,31.69,35.94,75.08,14.53,29.06,35.67,54.17,55.05,67.38,63,42.95,110.7,46.34,104.25,52.78Z" stroke="#000" stroke-miterlimit="10" stroke-width="47"/></svg>