<?xml version="1.0" encoding="UTF-8"?><svg id="a" xmlns="http://www.w3.org/2000/svg" width="1051.1" height="1462.26" viewBox="0 0 1051.1 1462.26"><path d="M85.6,519.56H965.5c22.4,0,40.6,18.2,40.6,40.6v816.5c0,22.4-18.2,40.6-40.6,40.6H85.6c-22.4,0-40.6-18.2-40.6-40.6V560.16c0-22.4,18.2-40.6,40.6-40.6Z" fill="none" stroke="#b7b7b7" stroke-miterlimit="10" stroke-width="90"/><line x1="525.5" y1="519.56" x2="272.9" y2="240.16" fill="none" stroke="#b7b7b7" stroke-miterlimit="10" stroke-width="90"/><line x1="541.4" y1="519.56" x2="685.1" y2="12.26" fill="none" stroke="#b7b7b7" stroke-miterlimit="10" stroke-width="90"/><path d="M287.8,654.26h475.6c30.1,0,54.5,24.4,54.5,54.5v529.1c0,30.1-24.4,54.5-54.5,54.5H287.8c-30.1,0-54.5-24.4-54.5-54.5V708.76c0-30.1,24.4-54.5,54.5-54.5Z" fill="none" stroke="#b7b7b7" stroke-miterlimit="10" stroke-width="90"/></svg>