<?xml version="1.0" encoding="UTF-8"?><svg id="a" xmlns="http://www.w3.org/2000/svg" width="1106.88" height="847.42" viewBox="0 0 1106.88 847.42"><g id="b"><path d="M143.26,746.52c-6.04-37.92-29.03-44.08-32.35-44.08s-9.95-6.16-.47-9.01c9.48-2.84,17.06-10.43,20.85-12.8,3.79-2.37,17.54-18.01,9.48-59.72-8.06-41.71-62.56-38.87-62.56-38.87H0c2.84,73.94,4.27,264.95,4.27,264.95,0,0,21.8,.95,74.89,0,53.08-.95,57.35-22.75,60.19-28.44,2.84-5.69,9.95-34.13,3.91-72.04Zm-95.39,48.82v-73.94c32.7-1.9,35.55,13.74,35.55,13.74,0,0,1.42,11.38,1.9,39.81,.47,28.44-37.44,20.38-37.44,20.38Zm9.95-115.17v-39.81s34.6-7.58,35.55,19.91c.95,27.49-35.55,19.91-35.55,19.91Z" fill="#c1272d"/><path d="M417.42,565.23h-96.06c-15.21,60.06-24.05,144.82-28.69,202.84-.83-.11-1.69-.19-2.61-.22l-12.32-.47-1.9-40.76s5.69-20.95-22.75-23.27c0,0-8.53-5.64,.47-9.43,0,0,38.39-2.37,39.34-41.23l-.47-24.66s4.27-63.03-58.3-63.97c-62.56-.95-82.94,0-82.94,0l3.32,269.69h59.72v-99.06s-.95-13.27,10.9-12.32c11.85,.95,9.48,25.09,9.48,25.09l.19,51.21s-2.09,19.91,14.97,20.38c17.06,.47,36.02,0,36.02,0,0,0,1.33,.14,3.33,.02-.52,8.99-.76,14.12-.76,14.12l53.21,5.06s-2.53-60.67-2.53-79.19,39.18-14.34,39.18-14.34c-2.53,13.9,2.53,93.53,2.53,93.53h74.57c-16.43-45.5-37.92-273-37.92-273Zm-194.66,88.87c-.47,18.96-30.49,15.65-30.49,15.65v-58.31c33.49-4.27,30.49,9.95,30.49,9.95,0,0,.47,13.74,0,32.7Zm126.41,31.99c-2.05-18.88,10.08-58.52,14.7-72.7,0,0,.02-.05,.04-.12-.01,.04-.02,.07-.04,.12,7.99,6.19,18.16,72.7,18.16,72.7h-32.86Zm15.09-73.88c.09-.29,.13-.41,0,0h0Zm-.16,.48s-.02,.07-.04,.11c.01-.04,.02-.07,.04-.11Z" fill="#c1272d"/><path d="M442.07,571.54s6.95,252.15,4.42,266.68h58.77s-2.53-132.71-4.42-147.24c0,0,15.8,96.04,17.69,131.75h46.76s19.59-88.59,24.65-134.82l3.79,143.99,63.83-1.9s-5.69-227.5,0-268.58h-97.32s-13.27,120.89-15.8,126.49c-2.53,5.59-15.8-72.14-15.17-118.27l-87.21,1.9Z" fill="#c1272d"/><path d="M784.58,557.01h-90.37c-14.53,62.56-32.86,247.09-32.86,247.09l58.77,10.74s2.53-29.7,3.79-37.29c1.26-7.58,27.17-13.9,28.44-5.06,1.26,8.85,1.9,47.4,1.9,47.4l65.72,2.84c-10.11-36.98-35.39-265.73-35.39-265.73Zm-66.99,144.72s4.42-33.49,8.22-60.04c3.79-26.54,10.74-26.54,14.85-24.89,4.11,1.65,5.37,84.93,5.37,84.93h-28.44Z" fill="#c1272d"/><path d="M957.74,751.02s3.16,89.74-49.29,90.37c-52.45,.63-16.43,0-16.43,0,0,0-65.72,16.43-72.04-80.26-6.32-96.69,0-136.5,6.32-156.72,6.32-20.22,26.54-41.08,67.62-39.18,41.08,1.9,61.93,8.85,68.25,48.03,6.32,39.18,4.42,67.62,4.42,67.62l-59.41-1.26s3.16-29.07,0-54.35c0,0-1.09-9.89-15.08-9.05s-18.42,4-19.05,20.43c-.63,16.43-6.95,115.02-.63,124.49,6.32,9.48,23.38,13.27,29.7,4.42s1.26-29.07-2.53-30.33c-3.79-1.26-15.8-1.9-15.8-1.9,0,0-2.53-32.23-.63-33.49s91.63,0,91.63,0v51.19h-17.06Z" fill="#c1272d"/><path d="M984.28,819.9l-5.69-262.89h119.44v43.6l-45.5,.63s-6.95,4.42-6.95,20.85,5.69,18.96,5.69,18.96l41.08-.63,.63,59.4h-44.24s-10.11,8.85-10.43,29.07c-.32,20.22,13.59,27.17,13.59,27.17h54.98v66.66l-122.6-2.84Z" fill="#c1272d"/></g><g id="c"><path d="M277.45,113.78c-9.64-33.73-31.56-86.72-130.2-91.54-98.65-4.82-113.65-4.82-135.33,0,0,0,19.82,375.8,10.19,510.7,0,0,255.35,45.77,267.39-103.58,12.04-149.36-2.41-281.85-12.04-315.57Zm-96.36,264.99c-4.82,55.41-62.63,36.13-62.63,36.13V147.51c60.22-4.82,62.63,28.91,62.63,28.91,0,0,4.82,146.95,0,202.35Z" fill="#c1272d"/><path d="M566.12,44.26l-197.84-7.23c-38.84,115.63-79.5,489.62-79.5,489.62l110.21,4.42,6.32-142.63s-1.81-36.13,36.13-36.13,30.71,38.84,30.71,38.84l4.52,129.18,139.12-3.61c-22.58-111.11-49.68-472.46-49.68-472.46Zm-136.41,211.39l12.65-97.65c12.65-11.83,22.58,0,22.58,0l17.16,97.65h-52.39Z" fill="#c1272d"/><path d="M611.29,0s17.27,434.17,4.52,496.85h130.08s-9.94-448.07,0-496.85h-134.6Z" fill="#c1272d"/><path d="M783.83,60.52l-12.65,459.81h100.27v-168.02s6.32-15.36,16.26-5.42l42.46,184.18h134.6l6.32-503.97h-102.98l-1.81,228.55s-3.61,16.26-18.07,0l-27.1-191.51-137.31-3.61Z" fill="#c1272d"/></g></svg>